<?xml version="1.0" encoding="UTF-8" standalone="no"?>
<!-- Created with Inkscape (http://www.inkscape.org/) -->

<svg
   version="1.1"
   id="svg2"
   width="1097.1427"
   height="329.84268"
   viewBox="0 0 1097.1427 329.84268"
   xmlns="http://www.w3.org/2000/svg"
   xmlns:svg="http://www.w3.org/2000/svg">
  <defs
     id="defs6">
    <clipPath
       clipPathUnits="userSpaceOnUse"
       id="clipPath16">
      <path
         d="M 0,247.382 H 822.857 V 0 H 0 Z"
         id="path14" />
    </clipPath>
  </defs>
  <g
     id="g8"
     transform="matrix(1.3333333,0,0,-1.3333333,0,329.84267)">
    <g
       id="g10">
      <g
         id="g12"
         clip-path="url(#clipPath16)">
        <g
           id="g18"
           transform="translate(148.4292,123.6806)">
          <path
             d="m 0,0 -7.847,4.532 -4.522,2.613 V 42.788 C -5.333,40.759 0.979,37.038 6.115,32.101 6.541,31.705 6.956,31.289 7.362,30.864 12.3,25.728 16.021,19.405 18.049,12.369 18.207,11.805 18.355,11.251 18.494,10.677 19.345,7.263 19.791,3.681 19.791,0 c 0,-3.681 -0.446,-7.263 -1.297,-10.677 z M -37.107,7.145 -41.64,4.522 -49.477,0 -67.971,-10.677 c -0.851,3.414 -1.296,6.996 -1.296,10.677 0,3.681 0.445,7.263 1.296,10.677 0.139,0.574 0.287,1.128 0.446,1.692 2.028,7.036 5.749,13.349 10.687,18.485 0.395,0.425 0.821,0.841 1.246,1.247 5.136,4.937 11.449,8.658 18.485,10.687 z m 136.06,5.224 h -77.53 l 67.14,38.77 -12.37,21.423 -67.139,-38.759 38.76,67.129 -21.423,12.369 -38.76,-67.13 v 77.53 H -37.107 V 46.152 l -38.77,67.149 -21.423,-12.369 38.75,-67.119 -67.12,38.749 -12.369,-21.423 67.139,-38.77 h -77.529 V -12.369 H -70.9 l -67.139,-38.76 12.369,-21.423 67.129,38.76 h 0.01 l 2.929,1.692 18.495,10.677 7.836,4.523 4.533,2.622 4.522,-2.613 7.847,-4.532 18.494,-10.677 2.919,-1.682 67.149,-38.77 12.37,21.423 -67.14,38.76 h 77.53 z"
             style="fill:#f37821;fill-opacity:1;fill-rule:nonzero;stroke:none"
             id="path20" />
        </g>
        <path
           d="M 111.322,0 H 136.06 V 52.63 H 111.322 Z"
           style="fill:#f37821;fill-opacity:1;fill-rule:nonzero;stroke:none"
           id="path22" />
        <g
           id="g24"
           transform="translate(372.0459,28.0703)">
          <path
             d="m 0,0 v 163.271 h -62.819 v 26.566 H 94.365 V 163.271 H 30.993 L 30.993,0 Z"
             style="fill:#f37821;fill-opacity:1;fill-rule:nonzero;stroke:none"
             id="path26" />
        </g>
        <g
           id="g28"
           transform="translate(494.9141,28.0703)">
          <path
             d="M 0,0 V 189.837 H 147.221 V 163.271 H 30.994 V 110.415 H 135.045 V 83.851 H 30.994 V 26.565 h 117.887 l 0,-26.565 z"
             style="fill:#f37821;fill-opacity:1;fill-rule:nonzero;stroke:none"
             id="path30" />
        </g>
        <g
           id="g32"
           transform="translate(743.7119,24.749)">
          <path
             d="m 0,0 c -10.334,0 -20.296,1.064 -29.887,3.183 -9.594,2.119 -18.083,5.535 -25.459,10.239 -7.381,4.704 -13.193,10.697 -17.434,17.988 -4.246,7.285 -6.365,16.003 -6.365,26.151 0,1.107 0.043,2.166 0.138,3.182 0.09,1.012 0.139,1.89 0.139,2.629 h 30.993 c 0,-0.553 -0.047,-1.383 -0.138,-2.491 -0.095,-1.107 -0.138,-2.032 -0.138,-2.768 0,-6.826 2.028,-12.638 6.088,-17.432 4.056,-4.8 9.729,-8.398 17.019,-10.794 7.286,-2.4 15.635,-3.598 25.044,-3.598 5.163,0 10.144,0.32 14.944,0.97 4.795,0.643 9.175,1.66 13.144,3.044 3.965,1.384 7.425,3.135 10.378,5.258 2.949,2.118 5.258,4.657 6.918,7.609 1.66,2.95 2.491,6.365 2.491,10.239 0,5.903 -1.708,10.793 -5.12,14.667 -3.416,3.874 -8.025,7.101 -13.837,9.686 -5.811,2.582 -12.362,4.886 -19.648,6.919 -7.29,2.028 -14.805,4.055 -22.553,6.088 -7.749,2.027 -15.268,4.426 -22.554,7.193 -7.29,2.768 -13.836,6.132 -19.648,10.101 -5.811,3.965 -10.425,8.947 -13.836,14.943 -3.416,5.994 -5.12,13.327 -5.12,22.001 0,8.302 1.752,15.679 5.258,22.139 3.502,6.455 8.579,11.852 15.221,16.188 6.641,4.333 14.571,7.611 23.798,9.824 9.223,2.214 19.648,3.321 31.271,3.321 9.962,0 19.371,-1.064 28.226,-3.183 8.856,-2.123 16.605,-5.396 23.246,-9.824 6.642,-4.427 11.852,-10.057 15.635,-16.88 3.779,-6.827 5.673,-14.943 5.673,-24.352 v -3.322 H 43.17 v 3.598 c 0,5.902 -1.755,10.883 -5.257,14.944 -3.508,4.056 -8.398,7.195 -14.668,9.409 -6.274,2.214 -13.559,3.32 -21.861,3.32 -9.781,0 -17.988,-0.968 -24.63,-2.905 -6.641,-1.937 -11.67,-4.614 -15.081,-8.025 -3.416,-3.416 -5.12,-7.52 -5.12,-12.315 0,-5.353 1.751,-9.733 5.258,-13.145 3.502,-3.415 8.164,-6.321 13.975,-8.716 5.812,-2.4 12.358,-4.567 19.648,-6.504 7.285,-1.937 14.758,-3.969 22.415,-6.088 7.653,-2.123 15.125,-4.566 22.416,-7.334 C 47.55,102.391 54.101,98.975 59.912,94.919 65.724,90.858 70.38,85.831 73.887,79.838 77.39,73.84 79.145,66.507 79.145,57.837 79.145,44.183 75.729,33.069 68.906,24.491 62.079,15.913 52.717,9.687 40.818,5.812 28.918,1.938 15.311,0 0,0"
             style="fill:#f37821;fill-opacity:1;fill-rule:nonzero;stroke:none"
             id="path34" />
        </g>
      </g>
    </g>
  </g>
</svg>
