<?xml version="1.0" encoding="UTF-8" standalone="no"?>
<!-- Created with Inkscape (http://www.inkscape.org/) -->

<svg
   version="1.1"
   id="svg2"
   width="1066.6667"
   height="244.19867"
   viewBox="0 0 1066.6667 244.19867"
   xmlns="http://www.w3.org/2000/svg"
   xmlns:svg="http://www.w3.org/2000/svg">
  <defs
     id="defs6">
    <clipPath
       clipPathUnits="userSpaceOnUse"
       id="clipPath16">
      <path
         d="M 0,183.149 H 800 V 0 H 0 Z"
         id="path14" />
    </clipPath>
  </defs>
  <g
     id="g8"
     transform="matrix(1.3333333,0,0,-1.3333333,0,244.19867)">
    <g
       id="g10">
      <g
         id="g12"
         clip-path="url(#clipPath16)">
        <g
           id="g18"
           transform="translate(109.8896,91.5673)">
          <path
             d="M 0,0 -5.81,3.355 -9.158,5.29 V 31.678 C -3.949,30.176 0.725,27.421 4.527,23.766 4.842,23.472 5.15,23.165 5.451,22.85 9.106,19.047 11.861,14.366 13.362,9.157 13.479,8.74 13.59,8.33 13.692,7.905 c 0.63,-2.528 0.96,-5.18 0.96,-7.905 0,-2.726 -0.33,-5.377 -0.96,-7.905 z M -27.473,5.29 -30.828,3.348 -36.63,0 -50.322,-7.905 c -0.63,2.528 -0.96,5.179 -0.96,7.905 0,2.725 0.33,5.377 0.96,7.905 0.102,0.425 0.212,0.835 0.329,1.252 1.502,5.209 4.257,9.883 7.912,13.685 0.293,0.315 0.609,0.623 0.924,0.924 3.802,3.655 8.476,6.41 13.684,7.912 z M 73.26,9.157 H 15.861 L 65.567,37.861 56.41,53.721 6.703,25.025 35.399,74.725 19.538,83.882 -9.158,34.183 V 91.582 H -27.473 V 34.168 l -28.703,49.714 -15.86,-9.157 28.688,-49.692 -49.692,28.688 -9.157,-15.86 49.706,-28.704 H -109.89 V -9.157 h 57.399 l -49.706,-28.697 9.157,-15.86 49.7,28.695 h 0.007 l 2.168,1.253 13.692,7.906 5.803,3.347 3.355,1.942 3.348,-1.935 5.809,-3.354 13.693,-7.906 2.161,-1.245 49.714,-28.703 9.157,15.86 -49.706,28.697 H 73.26 Z"
             style="fill:#f37821;fill-opacity:1;fill-rule:nonzero;stroke:none"
             id="path20" />
        </g>
        <path
           d="m 82.417,0 h 18.315 V 38.965 H 82.417 Z"
           style="fill:#f37821;fill-opacity:1;fill-rule:nonzero;stroke:none"
           id="path22" />
        <g
           id="g24"
           transform="translate(253.335,81.6259)">
          <path
             d="M 0,0 V 68.806 H -26.473 V 80.001 H 39.768 V 68.806 H 13.062 L 13.062,0 Z"
             style="fill:#f37821;fill-opacity:1;fill-rule:nonzero;stroke:none"
             id="path26" />
        </g>
        <g
           id="g28"
           transform="translate(311.062,111.2475)">
          <path
             d="m 0,0 h 29.388 l -8.98,23.44 c -0.233,0.7 -0.583,1.671 -1.049,2.916 -0.467,1.243 -0.953,2.604 -1.458,4.081 -0.506,1.477 -1.011,2.975 -1.516,4.491 -0.507,1.515 -0.953,2.895 -1.341,4.14 h -0.7 C 13.878,37.59 13.294,35.84 12.595,33.82 11.895,31.797 11.213,29.854 10.554,27.989 9.893,26.123 9.329,24.606 8.863,23.44 Z M -24.724,-29.622 6.647,50.38 H 23.324 L 54.811,-29.622 H 40.817 l -7.114,18.543 H -4.199 l -7.114,-18.543 z"
             style="fill:#f37821;fill-opacity:1;fill-rule:nonzero;stroke:none"
             id="path30" />
        </g>
        <g
           id="g32"
           transform="translate(376.1353,81.6259)">
          <path
             d="M 0,0 V 80.001 H 12.595 L 49.097,29.854 c 0.466,-0.465 0.991,-1.127 1.574,-1.981 0.583,-0.857 1.146,-1.712 1.691,-2.566 0.544,-0.857 0.933,-1.557 1.166,-2.099 h 0.584 v 3.381 3.265 50.147 H 66.707 L 66.707,0 H 54.578 L 17.609,50.73 c -0.623,0.933 -1.399,2.117 -2.332,3.557 -0.933,1.437 -1.632,2.546 -2.099,3.323 H 12.595 V 54.287 50.73 0 Z"
             style="fill:#f37821;fill-opacity:1;fill-rule:nonzero;stroke:none"
             id="path34" />
        </g>
        <g
           id="g36"
           transform="translate(475.6113,81.6259)">
          <path
             d="M 0,0 -22.042,80.001 H -8.164 L 5.481,27.289 c 0.233,-0.856 0.505,-2.022 0.816,-3.498 0.31,-1.479 0.602,-3.014 0.875,-4.607 0.271,-1.595 0.525,-3.052 0.758,-4.373 h 0.7 c 0.233,1.009 0.426,2.099 0.583,3.265 0.155,1.166 0.35,2.333 0.583,3.498 0.233,1.167 0.446,2.255 0.642,3.266 0.192,1.01 0.329,1.826 0.408,2.449 L 23.44,80.001 H 40.234 L 52.945,27.289 c 0.234,-0.856 0.505,-2.022 0.817,-3.498 0.309,-1.479 0.601,-3.014 0.874,-4.607 0.272,-1.595 0.525,-3.052 0.759,-4.373 h 0.699 c 0.155,0.933 0.35,1.982 0.583,3.148 0.234,1.167 0.467,2.313 0.7,3.44 0.233,1.127 0.485,2.196 0.758,3.207 0.272,1.01 0.485,1.905 0.641,2.683 L 72.421,80.001 H 84.783 L 62.742,0 H 47.464 L 34.053,53.412 c -0.234,1.166 -0.507,2.507 -0.816,4.024 -0.312,1.516 -0.604,3.069 -0.875,4.664 -0.274,1.593 -0.487,2.974 -0.641,4.14 h -0.583 c -0.157,-1.244 -0.35,-2.682 -0.584,-4.315 -0.233,-1.633 -0.506,-3.207 -0.816,-4.723 -0.312,-1.516 -0.583,-2.781 -0.816,-3.79 L 15.744,0 Z"
             style="fill:#f37821;fill-opacity:1;fill-rule:nonzero;stroke:none"
             id="path38" />
        </g>
        <g
           id="g40"
           transform="translate(571.1216,81.6259)">
          <path
             d="M 0,0 V 80.001 H 62.042 V 68.806 H 13.062 V 46.531 H 56.911 V 35.336 H 13.062 V 11.195 h 49.68 L 62.742,0 Z"
             style="fill:#f37821;fill-opacity:1;fill-rule:nonzero;stroke:none"
             id="path42" />
        </g>
        <g
           id="g44"
           transform="translate(649.7231,81.6259)">
          <path
             d="M 0,0 V 80.001 H 62.042 V 68.806 H 13.062 V 46.531 H 56.911 V 35.336 H 13.062 V 11.195 h 49.68 L 62.742,0 Z"
             style="fill:#f37821;fill-opacity:1;fill-rule:nonzero;stroke:none"
             id="path46" />
        </g>
        <g
           id="g48"
           transform="translate(741.3857,123.4926)">
          <path
             d="m 0,0 h 27.989 c 4.199,0 7.444,1.243 9.738,3.732 2.292,2.487 3.44,5.947 3.44,10.379 0,2.721 -0.506,5.033 -1.516,6.939 -1.011,1.904 -2.489,3.362 -4.431,4.373 -1.945,1.01 -4.356,1.516 -7.231,1.516 H 0 Z m -13.062,-41.867 v 80.002 h 42.101 c 5.674,0 10.378,-1.012 14.111,-3.032 3.731,-2.023 6.53,-4.84 8.396,-8.456 1.867,-3.615 2.799,-7.833 2.799,-12.652 C 54.345,8.629 53.139,3.965 50.73,0 48.319,-3.965 44.899,-6.881 40.467,-8.747 l 16.677,-33.12 H 42.917 L 27.756,-10.962 H 0 v -30.905 z"
             style="fill:#f37821;fill-opacity:1;fill-rule:nonzero;stroke:none"
             id="path50" />
        </g>
        <g
           id="g52"
           transform="translate(228.8965,21.1386)">
          <path
             d="M 0,0 V 38.956 H 30.21 V 33.505 H 6.36 V 22.658 H 27.712 V 17.207 H 6.36 V 5.452 H 30.551 V 0 Z"
             style="fill:#f37821;fill-opacity:1;fill-rule:nonzero;stroke:none"
             id="path54" />
        </g>
        <g
           id="g56"
           transform="translate(267.1704,21.1386)">
          <path
             d="M 0,0 V 38.956 H 6.133 L 23.907,14.537 c 0.228,-0.226 0.483,-0.549 0.767,-0.965 0.284,-0.417 0.558,-0.833 0.824,-1.249 0.264,-0.417 0.454,-0.758 0.567,-1.022 h 0.285 v 1.646 1.59 24.419 h 6.132 V 0 H 26.576 L 8.575,24.703 c -0.304,0.454 -0.681,1.031 -1.136,1.732 -0.454,0.7 -0.795,1.239 -1.022,1.618 H 6.133 V 26.435 24.703 L 6.133,0 Z"
             style="fill:#f37821;fill-opacity:1;fill-rule:nonzero;stroke:none"
             id="path58" />
        </g>
        <g
           id="g60"
           transform="translate(308.8521,21.1386)">
          <path
             d="M 0,0 V 38.956 H 30.211 V 33.505 H 6.36 V 22.658 H 27.712 V 17.207 H 6.36 V 5.452 H 30.551 V 0 Z"
             style="fill:#f37821;fill-opacity:1;fill-rule:nonzero;stroke:none"
             id="path62" />
        </g>
        <g
           id="g64"
           transform="translate(353.4868,41.5253)">
          <path
             d="m 0,0 h 13.628 c 2.045,0 3.625,0.605 4.743,1.817 1.116,1.211 1.675,2.897 1.675,5.055 0,1.324 -0.247,2.45 -0.738,3.379 -0.493,0.927 -1.213,1.637 -2.159,2.129 -0.946,0.492 -2.12,0.738 -3.521,0.738 L 0,13.118 Z m -6.36,-20.387 v 38.956 h 20.5 c 2.763,0 5.054,-0.492 6.871,-1.476 1.817,-0.985 3.18,-2.357 4.089,-4.116 0.908,-1.761 1.363,-3.816 1.363,-6.163 0,-2.612 -0.588,-4.883 -1.761,-6.814 -1.174,-1.931 -2.839,-3.35 -4.997,-4.259 l 8.121,-16.128 H 20.897 L 13.515,-5.338 H 0 v -15.049 z"
             style="fill:#f37821;fill-opacity:1;fill-rule:nonzero;stroke:none"
             id="path66" />
        </g>
        <g
           id="g68"
           transform="translate(405.2192,20.4569)">
          <path
             d="m 0,0 c -6.171,0 -10.913,1.628 -14.226,4.884 -3.313,3.256 -4.968,8.348 -4.968,15.276 0,4.543 0.775,8.3 2.328,11.273 1.552,2.971 3.805,5.195 6.758,6.671 2.953,1.477 6.549,2.215 10.789,2.215 2.536,0 4.893,-0.283 7.07,-0.851 2.177,-0.569 4.089,-1.43 5.736,-2.584 1.646,-1.155 2.914,-2.604 3.805,-4.345 0.889,-1.741 1.334,-3.805 1.334,-6.189 h -6.474 c 0,1.476 -0.294,2.754 -0.88,3.833 -0.587,1.079 -1.401,1.977 -2.442,2.697 -1.041,0.72 -2.253,1.239 -3.634,1.562 -1.383,0.321 -2.849,0.483 -4.401,0.483 -2.158,0 -4.08,-0.284 -5.764,-0.853 -1.685,-0.567 -3.095,-1.438 -4.231,-2.612 -1.135,-1.173 -1.987,-2.649 -2.555,-4.429 -0.568,-1.78 -0.852,-3.881 -0.852,-6.303 v -1.193 c 0,-3.332 0.483,-6.039 1.448,-8.121 0.965,-2.082 2.404,-3.605 4.316,-4.571 1.911,-0.965 4.249,-1.447 7.013,-1.447 2.612,0 4.808,0.377 6.587,1.135 1.78,0.757 3.142,1.883 4.089,3.379 0.946,1.495 1.42,3.359 1.42,5.594 v 0.567 H -0.852 v 5.282 H 18.626 V 0.682 h -4.6 L 13.401,5.338 C 12.341,4.09 11.13,3.076 9.767,2.301 8.404,1.524 6.918,0.946 5.31,0.568 3.7,0.19 1.931,0 0,0"
             style="fill:#f37821;fill-opacity:1;fill-rule:nonzero;stroke:none"
             id="path70" />
        </g>
        <g
           id="g72"
           transform="translate(443.8345,21.1386)">
          <path
             d="m 0,0 v 16.015 l -15.162,22.941 h 7.268 L 3.237,21.693 h 0.284 l 11.017,17.263 h 6.984 L 6.36,16.015 V 0 Z"
             style="fill:#f37821;fill-opacity:1;fill-rule:nonzero;stroke:none"
             id="path74" />
        </g>
        <g
           id="g76"
           transform="translate(493.8628,20.4569)">
          <path
             d="m 0,0 c -2.121,0 -4.165,0.219 -6.133,0.653 -1.969,0.435 -3.711,1.136 -5.224,2.102 -1.515,0.965 -2.707,2.195 -3.578,3.691 -0.871,1.495 -1.306,3.283 -1.306,5.367 0,0.227 0.009,0.444 0.028,0.653 0.019,0.207 0.029,0.388 0.029,0.539 h 6.36 c 0,-0.113 -0.01,-0.284 -0.029,-0.511 -0.019,-0.227 -0.028,-0.418 -0.028,-0.568 0,-1.402 0.416,-2.594 1.249,-3.577 C -7.799,7.363 -6.635,6.625 -5.139,6.134 -3.644,5.641 -1.931,5.396 0,5.396 c 1.06,0 2.082,0.065 3.066,0.198 0.984,0.133 1.884,0.341 2.698,0.625 0.814,0.284 1.524,0.643 2.13,1.079 0.605,0.434 1.079,0.955 1.419,1.561 0.341,0.605 0.511,1.306 0.511,2.102 0,1.211 -0.35,2.214 -1.051,3.009 -0.7,0.796 -1.646,1.458 -2.838,1.988 -1.193,0.529 -2.538,1.003 -4.033,1.42 -1.496,0.415 -3.038,0.832 -4.628,1.249 -1.59,0.416 -3.133,0.908 -4.628,1.477 -1.496,0.567 -2.839,1.257 -4.032,2.072 -1.192,0.814 -2.139,1.836 -2.839,3.066 -0.701,1.23 -1.051,2.735 -1.051,4.515 0,1.703 0.36,3.217 1.079,4.543 0.719,1.325 1.76,2.431 3.124,3.322 1.363,0.89 2.99,1.562 4.883,2.016 1.893,0.454 4.032,0.681 6.417,0.681 2.044,0 3.975,-0.217 5.793,-0.653 1.817,-0.436 3.407,-1.107 4.77,-2.016 1.362,-0.908 2.432,-2.064 3.208,-3.463 0.775,-1.402 1.164,-3.068 1.164,-4.998 V 28.508 H 8.859 v 0.738 c 0,1.211 -0.36,2.233 -1.079,3.067 -0.719,0.832 -1.723,1.476 -3.01,1.93 -1.287,0.454 -2.782,0.682 -4.486,0.682 -2.007,0 -3.691,-0.199 -5.054,-0.597 -1.363,-0.397 -2.395,-0.946 -3.095,-1.646 -0.701,-0.702 -1.051,-1.543 -1.051,-2.528 0,-1.098 0.36,-1.997 1.08,-2.697 0.718,-0.7 1.675,-1.297 2.867,-1.788 1.193,-0.493 2.536,-0.938 4.032,-1.335 1.495,-0.397 3.028,-0.814 4.6,-1.25 1.57,-0.435 3.104,-0.937 4.6,-1.504 1.494,-0.568 2.839,-1.269 4.031,-2.101 1.193,-0.833 2.148,-1.866 2.868,-3.095 0.719,-1.231 1.079,-2.737 1.079,-4.515 C 16.241,9.067 15.54,6.786 14.14,5.026 12.739,3.266 10.818,1.988 8.376,1.192 5.935,0.398 3.142,0 0,0"
             style="fill:#f37821;fill-opacity:1;fill-rule:nonzero;stroke:none"
             id="path78" />
        </g>
        <g
           id="g80"
           transform="translate(535.1475,25.8524)">
          <path
             d="m 0,0 c 2.081,0 3.927,0.283 5.537,0.852 1.608,0.568 2.971,1.438 4.088,2.612 1.116,1.173 1.968,2.649 2.556,4.43 0.586,1.778 0.88,3.841 0.88,6.189 v 1.249 c 0,2.423 -0.294,4.523 -0.88,6.304 -0.588,1.779 -1.44,3.256 -2.556,4.428 -1.117,1.174 -2.48,2.045 -4.088,2.613 -1.61,0.568 -3.456,0.852 -5.537,0.852 -2.045,0 -3.872,-0.284 -5.48,-0.852 -1.61,-0.568 -2.973,-1.439 -4.089,-2.613 -1.117,-1.172 -1.959,-2.649 -2.527,-4.428 -0.568,-1.781 -0.852,-3.881 -0.852,-6.304 v -1.249 c 0,-2.348 0.284,-4.411 0.852,-6.189 0.568,-1.781 1.41,-3.257 2.527,-4.43 C -8.453,2.29 -7.09,1.42 -5.48,0.852 -3.872,0.283 -2.045,0 0,0 m 0,-5.396 c -4.014,0 -7.488,0.739 -10.421,2.215 -2.934,1.477 -5.187,3.71 -6.757,6.702 -1.572,2.99 -2.357,6.738 -2.357,11.244 0,4.543 0.785,8.299 2.357,11.272 1.57,2.972 3.823,5.195 6.757,6.672 2.933,1.477 6.407,2.215 10.421,2.215 4.088,0 7.59,-0.738 10.505,-2.215 2.915,-1.477 5.158,-3.7 6.729,-6.672 1.571,-2.973 2.357,-6.729 2.357,-11.272 0,-4.506 -0.786,-8.254 -2.357,-11.244 C 15.663,0.529 13.42,-1.704 10.505,-3.181 7.59,-4.657 4.088,-5.396 0,-5.396"
             style="fill:#f37821;fill-opacity:1;fill-rule:nonzero;stroke:none"
             id="path82" />
        </g>
        <g
           id="g84"
           transform="translate(562.064,21.1386)">
          <path
             d="M 0,0 V 38.956 H 6.36 V 5.509 H 25.781 V 0 Z"
             style="fill:#f37821;fill-opacity:1;fill-rule:nonzero;stroke:none"
             id="path86" />
        </g>
        <g
           id="g88"
           transform="translate(607.3799,20.4569)">
          <path
             d="m 0,0 c -3.332,0 -6.209,0.54 -8.632,1.619 -2.423,1.078 -4.278,2.754 -5.565,5.026 -1.287,2.271 -1.931,5.148 -1.931,8.631 v 24.362 h 6.36 V 15.106 c 0,-3.218 0.852,-5.642 2.556,-7.269 C -5.508,6.209 -3.105,5.396 0,5.396 c 3.142,0 5.594,0.813 7.354,2.441 1.761,1.627 2.64,4.051 2.64,7.269 v 24.532 h 6.36 V 15.276 c 0,-3.483 -0.652,-6.36 -1.958,-8.631 C 13.089,4.373 11.215,2.697 8.774,1.619 6.332,0.54 3.407,0 0,0"
             style="fill:#f37821;fill-opacity:1;fill-rule:nonzero;stroke:none"
             id="path90" />
        </g>
        <g
           id="g92"
           transform="translate(642.3037,21.1386)">
          <path
             d="m 0,0 v 33.505 h -12.891 v 5.451 H 19.364 V 33.505 H 6.36 L 6.36,0 Z"
             style="fill:#f37821;fill-opacity:1;fill-rule:nonzero;stroke:none"
             id="path94" />
        </g>
        <path
           d="m 667.518,60.095 h 6.36 V 21.139 h -6.36 z"
           style="fill:#f37821;fill-opacity:1;fill-rule:nonzero;stroke:none"
           id="path96" />
        <g
           id="g98"
           transform="translate(700.7368,25.8524)">
          <path
             d="m 0,0 c 2.081,0 3.927,0.283 5.537,0.852 1.608,0.568 2.971,1.438 4.088,2.612 1.116,1.173 1.968,2.649 2.556,4.43 0.586,1.778 0.88,3.841 0.88,6.189 v 1.249 c 0,2.423 -0.294,4.523 -0.88,6.304 -0.588,1.779 -1.44,3.256 -2.556,4.428 -1.117,1.174 -2.48,2.045 -4.088,2.613 -1.61,0.568 -3.456,0.852 -5.537,0.852 -2.045,0 -3.871,-0.284 -5.48,-0.852 -1.609,-0.568 -2.973,-1.439 -4.089,-2.613 -1.117,-1.172 -1.959,-2.649 -2.527,-4.428 -0.568,-1.781 -0.852,-3.881 -0.852,-6.304 v -1.249 c 0,-2.348 0.284,-4.411 0.852,-6.189 0.568,-1.781 1.41,-3.257 2.527,-4.43 C -8.453,2.29 -7.089,1.42 -5.48,0.852 -3.871,0.283 -2.045,0 0,0 m 0,-5.396 c -4.014,0 -7.487,0.739 -10.421,2.215 -2.934,1.477 -5.187,3.71 -6.758,6.702 -1.571,2.99 -2.356,6.738 -2.356,11.244 0,4.543 0.785,8.299 2.356,11.272 1.571,2.972 3.824,5.195 6.758,6.672 2.934,1.477 6.407,2.215 10.421,2.215 4.088,0 7.59,-0.738 10.505,-2.215 2.915,-1.477 5.158,-3.7 6.729,-6.672 1.571,-2.973 2.357,-6.729 2.357,-11.272 0,-4.506 -0.786,-8.254 -2.357,-11.244 C 15.663,0.529 13.42,-1.704 10.505,-3.181 7.59,-4.657 4.088,-5.396 0,-5.396"
             style="fill:#f37821;fill-opacity:1;fill-rule:nonzero;stroke:none"
             id="path100" />
        </g>
        <g
           id="g102"
           transform="translate(727.6533,21.1386)">
          <path
             d="M 0,0 V 38.956 H 6.133 L 23.907,14.537 c 0.227,-0.226 0.483,-0.549 0.767,-0.965 0.284,-0.417 0.558,-0.833 0.824,-1.249 0.264,-0.417 0.454,-0.758 0.567,-1.022 h 0.285 v 1.646 1.59 24.419 h 6.132 V 0 H 26.577 L 8.575,24.703 c -0.304,0.454 -0.682,1.031 -1.136,1.732 -0.454,0.7 -0.795,1.239 -1.022,1.618 H 6.133 V 26.435 24.703 L 6.133,0 Z"
             style="fill:#f37821;fill-opacity:1;fill-rule:nonzero;stroke:none"
             id="path104" />
        </g>
        <g
           id="g106"
           transform="translate(783.7588,20.4569)">
          <path
             d="m 0,0 c -2.12,0 -4.165,0.219 -6.133,0.653 -1.969,0.435 -3.71,1.136 -5.224,2.102 -1.515,0.965 -2.707,2.195 -3.578,3.691 -0.872,1.495 -1.306,3.283 -1.306,5.367 0,0.227 0.009,0.444 0.028,0.653 0.019,0.207 0.029,0.388 0.029,0.539 h 6.36 c 0,-0.113 -0.01,-0.284 -0.028,-0.511 -0.02,-0.227 -0.029,-0.418 -0.029,-0.568 0,-1.402 0.417,-2.594 1.25,-3.577 C -7.799,7.363 -6.635,6.625 -5.139,6.134 -3.644,5.641 -1.931,5.396 0,5.396 c 1.06,0 2.082,0.065 3.066,0.198 0.985,0.133 1.884,0.341 2.698,0.625 0.814,0.284 1.524,0.643 2.13,1.079 0.605,0.434 1.079,0.955 1.419,1.561 0.341,0.605 0.511,1.306 0.511,2.102 0,1.211 -0.35,2.214 -1.05,3.009 -0.701,0.796 -1.647,1.458 -2.839,1.988 -1.193,0.529 -2.537,1.003 -4.032,1.42 -1.496,0.415 -3.038,0.832 -4.629,1.249 -1.589,0.416 -3.132,0.908 -4.628,1.477 -1.496,0.567 -2.839,1.257 -4.032,2.072 -1.192,0.814 -2.139,1.836 -2.839,3.066 -0.701,1.23 -1.05,2.735 -1.05,4.515 0,1.703 0.359,3.217 1.079,4.543 0.718,1.325 1.76,2.431 3.123,3.322 1.362,0.89 2.99,1.562 4.883,2.016 1.893,0.454 4.032,0.681 6.417,0.681 2.044,0 3.976,-0.217 5.793,-0.653 1.816,-0.436 3.407,-1.107 4.77,-2.016 1.363,-0.908 2.432,-2.064 3.209,-3.463 0.775,-1.402 1.163,-3.068 1.163,-4.998 V 28.508 H 8.859 v 0.738 c 0,1.211 -0.36,2.233 -1.079,3.067 -0.719,0.832 -1.723,1.476 -3.01,1.93 -1.287,0.454 -2.782,0.682 -4.486,0.682 -2.007,0 -3.691,-0.199 -5.054,-0.597 -1.363,-0.397 -2.395,-0.946 -3.095,-1.646 -0.701,-0.702 -1.051,-1.543 -1.051,-2.528 0,-1.098 0.36,-1.997 1.08,-2.697 0.718,-0.7 1.675,-1.297 2.867,-1.788 1.193,-0.493 2.536,-0.938 4.032,-1.335 1.496,-0.397 3.029,-0.814 4.6,-1.25 1.57,-0.435 3.104,-0.937 4.599,-1.504 1.496,-0.568 2.84,-1.269 4.032,-2.101 1.193,-0.833 2.149,-1.866 2.868,-3.095 0.719,-1.231 1.079,-2.737 1.079,-4.515 0,-2.802 -0.7,-5.083 -2.101,-6.843 C 12.739,3.266 10.818,1.988 8.376,1.192 5.935,0.398 3.142,0 0,0"
             style="fill:#f37821;fill-opacity:1;fill-rule:nonzero;stroke:none"
             id="path108" />
        </g>
      </g>
    </g>
  </g>
</svg>
